# Blender 5.2.1 LTS
# www.blender.org
mtllib Part_LiDAR_Scanner.mtl
o COMP_LIDAR_ENVELOPE
v 0.049000 -0.032500 0.000000
v 0.045270 -0.032500 -0.018751
v 0.034648 -0.032500 -0.034648
v 0.018751 -0.032500 -0.045270
v 0.000000 -0.032500 -0.049000
v -0.018751 -0.032500 -0.045270
v -0.034648 -0.032500 -0.034648
v -0.045270 -0.032500 -0.018751
v -0.049000 -0.032500 -0.000000
v -0.045270 -0.032500 0.018751
v -0.034648 -0.032500 0.034648
v -0.018751 -0.032500 0.045270
v -0.000000 -0.032500 0.049000
v 0.018751 -0.032500 0.045270
v 0.034648 -0.032500 0.034648
v 0.045270 -0.032500 0.018751
v 0.049000 0.032500 0.000000
v 0.045270 0.032500 -0.018751
v 0.034648 0.032500 -0.034648
v 0.018751 0.032500 -0.045270
v 0.000000 0.032500 -0.049000
v -0.018751 0.032500 -0.045270
v -0.034648 0.032500 -0.034648
v -0.045270 0.032500 -0.018751
v -0.049000 0.032500 -0.000000
v -0.045270 0.032500 0.018751
v -0.034648 0.032500 0.034648
v -0.018751 0.032500 0.045270
v -0.000000 0.032500 0.049000
v 0.018751 0.032500 0.045270
v 0.034648 0.032500 0.034648
v 0.045270 0.032500 0.018751
vn 0.9808 -0.0000 -0.1951
vn 0.8315 -0.0000 -0.5556
vn 0.5556 -0.0000 -0.8315
vn 0.1951 -0.0000 -0.9808
vn -0.1951 -0.0000 -0.9808
vn -0.5556 -0.0000 -0.8315
vn -0.8315 -0.0000 -0.5556
vn -0.9808 -0.0000 -0.1951
vn -0.9808 -0.0000 0.1951
vn -0.8315 -0.0000 0.5556
vn -0.5556 -0.0000 0.8315
vn -0.1951 -0.0000 0.9808
vn 0.1951 -0.0000 0.9808
vn 0.5556 -0.0000 0.8315
vn 0.8315 -0.0000 0.5556
vn 0.9808 -0.0000 0.1951
vn -0.0000 -1.0000 -0.0000
vn -0.0000 1.0000 -0.0000
s 0
usemtl MAT_ENG_SensorOptics
f 1//1 2//1 18//1 17//1
f 2//2 3//2 19//2 18//2
f 3//3 4//3 20//3 19//3
f 4//4 5//4 21//4 20//4
f 5//5 6//5 22//5 21//5
f 6//6 7//6 23//6 22//6
f 7//7 8//7 24//7 23//7
f 8//8 9//8 25//8 24//8
f 9//9 10//9 26//9 25//9
f 10//10 11//10 27//10 26//10
f 11//11 12//11 28//11 27//11
f 12//12 13//12 29//12 28//12
f 13//13 14//13 30//13 29//13
f 14//14 15//14 31//14 30//14
f 15//15 16//15 32//15 31//15
f 16//16 1//16 17//16 32//16
f 16//17 15//17 14//17 13//17 12//17 11//17 10//17 9//17 8//17 7//17 6//17 5//17 4//17 3//17 2//17 1//17
f 17//18 18//18 19//18 20//18 21//18 22//18 23//18 24//18 25//18 26//18 27//18 28//18 29//18 30//18 31//18 32//18
