# Blender 5.2.1 LTS
# www.blender.org
mtllib Part_Forearm.mtl
o ARM_RIGHT_Forearm
v 0.335821 0.863582 0.020000
v 0.355821 0.663582 0.020000
v 0.334068 0.863407 0.008875
v 0.354068 0.663407 0.008875
v 0.328980 0.862898 -0.001160
v 0.348980 0.662898 -0.001160
v 0.321055 0.862106 -0.009125
v 0.341055 0.662105 -0.009125
v 0.311069 0.861107 -0.014238
v 0.331069 0.661107 -0.014238
v 0.300000 0.860000 -0.016000
v 0.320000 0.660000 -0.016000
v 0.288931 0.858893 -0.014238
v 0.308931 0.658893 -0.014238
v 0.278945 0.857895 -0.009125
v 0.298945 0.657894 -0.009125
v 0.271020 0.857102 -0.001160
v 0.291020 0.657102 -0.001160
v 0.265932 0.856593 0.008875
v 0.285932 0.656593 0.008875
v 0.264179 0.856418 0.020000
v 0.284179 0.656418 0.020000
v 0.265932 0.856593 0.031125
v 0.285932 0.656593 0.031125
v 0.271020 0.857102 0.041160
v 0.291020 0.657102 0.041160
v 0.278945 0.857895 0.049125
v 0.298945 0.657894 0.049125
v 0.288931 0.858893 0.054238
v 0.308931 0.658893 0.054238
v 0.300000 0.860000 0.056000
v 0.320000 0.660000 0.056000
v 0.311069 0.861107 0.054238
v 0.331069 0.661107 0.054238
v 0.321055 0.862106 0.049125
v 0.341055 0.662105 0.049125
v 0.328980 0.862898 0.041160
v 0.348980 0.662898 0.041160
v 0.334068 0.863407 0.031125
v 0.354068 0.663407 0.031125
vn 0.9828 0.0983 -0.1564
vn 0.8866 0.0887 -0.4540
vn 0.7036 0.0704 -0.7071
vn 0.4517 0.0452 -0.8910
vn 0.1557 0.0156 -0.9877
vn -0.1557 -0.0156 -0.9877
vn -0.4517 -0.0452 -0.8910
vn -0.7036 -0.0704 -0.7071
vn -0.8866 -0.0887 -0.4540
vn -0.9828 -0.0983 -0.1564
vn -0.9828 -0.0983 0.1564
vn -0.8866 -0.0887 0.4540
vn -0.7036 -0.0704 0.7071
vn -0.4517 -0.0452 0.8910
vn -0.1557 -0.0156 0.9877
vn 0.1557 0.0156 0.9877
vn 0.4517 0.0452 0.8910
vn 0.7036 0.0704 0.7071
vn 0.0995 -0.9950 -0.0000
vn 0.8866 0.0887 0.4540
vn 0.9828 0.0983 0.1564
vn -0.0995 0.9950 -0.0000
vt 1.000000 0.500000
vt 1.000000 1.000000
vt 0.950000 1.000000
vt 0.950000 0.500000
vt 0.900000 1.000000
vt 0.900000 0.500000
vt 0.850000 1.000000
vt 0.850000 0.500000
vt 0.800000 1.000000
vt 0.800000 0.500000
vt 0.750000 1.000000
vt 0.750000 0.500000
vt 0.700000 1.000000
vt 0.700000 0.500000
vt 0.650000 1.000000
vt 0.650000 0.500000
vt 0.600000 1.000000
vt 0.600000 0.500000
vt 0.550000 1.000000
vt 0.550000 0.500000
vt 0.500000 1.000000
vt 0.500000 0.500000
vt 0.450000 1.000000
vt 0.450000 0.500000
vt 0.400000 1.000000
vt 0.400000 0.500000
vt 0.350000 1.000000
vt 0.350000 0.500000
vt 0.300000 1.000000
vt 0.300000 0.500000
vt 0.250000 1.000000
vt 0.250000 0.500000
vt 0.200000 1.000000
vt 0.200000 0.500000
vt 0.150000 1.000000
vt 0.150000 0.500000
vt 0.100000 1.000000
vt 0.100000 0.500000
vt 0.324164 0.478254
vt 0.250000 0.490000
vt 0.175836 0.478254
vt 0.108932 0.444164
vt 0.055836 0.391068
vt 0.021746 0.324164
vt 0.010000 0.250000
vt 0.021746 0.175836
vt 0.055836 0.108932
vt 0.108932 0.055836
vt 0.175836 0.021746
vt 0.250000 0.010000
vt 0.324164 0.021746
vt 0.391068 0.055836
vt 0.444164 0.108932
vt 0.478254 0.175836
vt 0.490000 0.250000
vt 0.478254 0.324164
vt 0.444164 0.391068
vt 0.391068 0.444164
vt 0.050000 1.000000
vt 0.050000 0.500000
vt -0.000000 1.000000
vt -0.000000 0.500000
vt 0.750000 0.490000
vt 0.824164 0.478254
vt 0.891068 0.444164
vt 0.944164 0.391068
vt 0.978254 0.324164
vt 0.990000 0.250000
vt 0.978254 0.175836
vt 0.944164 0.108932
vt 0.891068 0.055836
vt 0.824164 0.021746
vt 0.750000 0.010000
vt 0.675836 0.021746
vt 0.608932 0.055836
vt 0.555836 0.108932
vt 0.521746 0.175836
vt 0.510000 0.250000
vt 0.521746 0.324164
vt 0.555836 0.391068
vt 0.608932 0.444164
vt 0.675836 0.478254
s 0
usemtl GRACEEMO_Shell_White
f 1/1/1 2/2/1 4/3/1 3/4/1
f 3/4/2 4/3/2 6/5/2 5/6/2
f 5/6/3 6/5/3 8/7/3 7/8/3
f 7/8/4 8/7/4 10/9/4 9/10/4
f 9/10/5 10/9/5 12/11/5 11/12/5
f 11/12/6 12/11/6 14/13/6 13/14/6
f 13/14/7 14/13/7 16/15/7 15/16/7
f 15/16/8 16/15/8 18/17/8 17/18/8
f 17/18/9 18/17/9 20/19/9 19/20/9
f 19/20/10 20/19/10 22/21/10 21/22/10
f 21/22/11 22/21/11 24/23/11 23/24/11
f 23/24/12 24/23/12 26/25/12 25/26/12
f 25/26/13 26/25/13 28/27/13 27/28/13
f 27/28/14 28/27/14 30/29/14 29/30/14
f 29/30/15 30/29/15 32/31/15 31/32/15
f 31/32/16 32/31/16 34/33/16 33/34/16
f 33/34/17 34/33/17 36/35/17 35/36/17
f 35/36/18 36/35/18 38/37/18 37/38/18
f 4/39/19 2/40/19 40/41/19 38/42/19 36/43/19 34/44/19 32/45/19 30/46/19 28/47/19 26/48/19 24/49/19 22/50/19 20/51/19 18/52/19 16/53/19 14/54/19 12/55/19 10/56/19 8/57/19 6/58/19
f 37/38/20 38/37/20 40/59/20 39/60/20
f 39/60/21 40/59/21 2/61/21 1/62/21
f 1/63/22 3/64/22 5/65/22 7/66/22 9/67/22 11/68/22 13/69/22 15/70/22 17/71/22 19/72/22 21/73/22 23/74/22 25/75/22 27/76/22 29/77/22 31/78/22 33/79/22 35/80/22 37/81/22 39/82/22
