# Blender 5.2.1 LTS
# www.blender.org
mtllib Part_Base_Chassis.mtl
o CHASSIS_Lower_Module
v -0.170000 0.060000 0.160000
v -0.170000 0.080000 0.180000
v -0.190000 0.080000 0.160000
v -0.170000 0.062672 0.169987
v -0.179987 0.062672 0.160000
v -0.179564 0.065267 0.169564
v -0.179987 0.080000 0.177328
v -0.170000 0.070013 0.177328
v -0.179564 0.070436 0.174733
v -0.187328 0.070013 0.160000
v -0.187328 0.080000 0.169987
v -0.184733 0.070436 0.169564
v -0.170000 0.200000 0.180000
v -0.170000 0.220000 0.160000
v -0.190000 0.200000 0.160000
v -0.170000 0.209987 0.177328
v -0.179987 0.200000 0.177328
v -0.179564 0.209564 0.174733
v -0.179987 0.217328 0.160000
v -0.170000 0.217328 0.169987
v -0.179564 0.214733 0.169564
v -0.187328 0.200000 0.169987
v -0.187328 0.209987 0.160000
v -0.184733 0.209564 0.169564
v -0.170000 0.060000 -0.160000
v -0.190000 0.080000 -0.160000
v -0.170000 0.080000 -0.180000
v -0.179987 0.062672 -0.160000
v -0.170000 0.062672 -0.169987
v -0.179564 0.065267 -0.169564
v -0.187328 0.080000 -0.169987
v -0.187328 0.070013 -0.160000
v -0.184733 0.070436 -0.169564
v -0.170000 0.070013 -0.177328
v -0.179987 0.080000 -0.177328
v -0.179564 0.070436 -0.174733
v -0.170000 0.220000 -0.160000
v -0.170000 0.200000 -0.180000
v -0.190000 0.200000 -0.160000
v -0.170000 0.217328 -0.169987
v -0.179987 0.217328 -0.160000
v -0.179564 0.214733 -0.169564
v -0.179987 0.200000 -0.177328
v -0.170000 0.209987 -0.177328
v -0.179564 0.209564 -0.174733
v -0.187328 0.209987 -0.160000
v -0.187328 0.200000 -0.169987
v -0.184733 0.209564 -0.169564
v 0.170000 0.060000 0.160000
v 0.190000 0.080000 0.160000
v 0.170000 0.080000 0.180000
v 0.179987 0.062672 0.160000
v 0.170000 0.062672 0.169987
v 0.179564 0.065267 0.169564
v 0.187328 0.080000 0.169987
v 0.187328 0.070013 0.160000
v 0.184733 0.070436 0.169564
v 0.170000 0.070013 0.177328
v 0.179987 0.080000 0.177328
v 0.179564 0.070436 0.174733
v 0.170000 0.220000 0.160000
v 0.170000 0.200000 0.180000
v 0.190000 0.200000 0.160000
v 0.170000 0.217328 0.169987
v 0.179987 0.217328 0.160000
v 0.179564 0.214733 0.169564
v 0.179987 0.200000 0.177328
v 0.170000 0.209987 0.177328
v 0.179564 0.209564 0.174733
v 0.187328 0.209987 0.160000
v 0.187328 0.200000 0.169987
v 0.184733 0.209564 0.169564
v 0.170000 0.060000 -0.160000
v 0.170000 0.080000 -0.180000
v 0.190000 0.080000 -0.160000
v 0.170000 0.062672 -0.169987
v 0.179987 0.062672 -0.160000
v 0.179564 0.065267 -0.169564
v 0.179987 0.080000 -0.177328
v 0.170000 0.070013 -0.177328
v 0.179564 0.070436 -0.174733
v 0.187328 0.070013 -0.160000
v 0.187328 0.080000 -0.169987
v 0.184733 0.070436 -0.169564
v 0.170000 0.220000 -0.160000
v 0.190000 0.200000 -0.160000
v 0.170000 0.200000 -0.180000
v 0.179987 0.217328 -0.160000
v 0.170000 0.217328 -0.169987
v 0.179564 0.214733 -0.169564
v 0.187328 0.200000 -0.169987
v 0.187328 0.209987 -0.160000
v 0.184733 0.209564 -0.169564
v 0.170000 0.209987 -0.177328
v 0.179987 0.200000 -0.177328
v 0.179564 0.209564 -0.174733
vn -0.2566 -0.9318 0.2566
vn -0.2178 -0.6901 0.6901
vn -0.2566 -0.2566 0.9318
vn -0.6901 -0.2178 0.6901
vn -0.9318 -0.2566 0.2566
vn -0.6901 -0.6901 0.2178
vn -0.5774 -0.5773 0.5774
vn -0.2566 0.2566 0.9318
vn -0.2178 0.6901 0.6901
vn -0.2566 0.9318 0.2566
vn -0.6901 0.6901 0.2178
vn -0.9318 0.2566 0.2566
vn -0.6901 0.2178 0.6901
vn -0.5774 0.5773 0.5774
vn -0.2566 -0.9318 -0.2566
vn -0.6901 -0.6901 -0.2178
vn -0.9318 -0.2566 -0.2566
vn -0.6901 -0.2178 -0.6901
vn -0.2566 -0.2566 -0.9318
vn -0.2178 -0.6901 -0.6901
vn -0.5774 -0.5773 -0.5773
vn -0.2566 0.9318 -0.2566
vn -0.2178 0.6901 -0.6901
vn -0.2566 0.2566 -0.9318
vn -0.6901 0.2178 -0.6901
vn -0.9318 0.2566 -0.2566
vn -0.6901 0.6901 -0.2178
vn -0.5774 0.5773 -0.5774
vn 0.2566 -0.9318 0.2566
vn 0.6901 -0.6901 0.2178
vn 0.9318 -0.2566 0.2566
vn 0.6901 -0.2178 0.6901
vn 0.2566 -0.2566 0.9318
vn 0.2178 -0.6901 0.6901
vn 0.5774 -0.5773 0.5773
vn 0.2566 0.9318 0.2566
vn 0.2178 0.6901 0.6901
vn 0.2566 0.2566 0.9318
vn 0.6901 0.2178 0.6901
vn 0.9318 0.2566 0.2566
vn 0.6901 0.6901 0.2178
vn 0.5774 0.5773 0.5774
vn 0.2566 -0.9318 -0.2566
vn 0.2178 -0.6901 -0.6901
vn 0.2566 -0.2566 -0.9318
vn 0.6901 -0.2178 -0.6901
vn 0.9318 -0.2566 -0.2566
vn 0.6901 -0.6901 -0.2178
vn 0.5774 -0.5773 -0.5774
vn 0.2566 0.9318 -0.2566
vn 0.6901 0.6901 -0.2178
vn 0.9318 0.2566 -0.2566
vn 0.6901 0.2178 -0.6901
vn 0.2566 0.2566 -0.9318
vn 0.2178 0.6901 -0.6901
vn 0.5774 0.5773 -0.5773
vn -0.2585 -0.9660 -0.0000
vn -0.7071 -0.7071 -0.0000
vn -0.9660 -0.2585 -0.0000
vn -0.2585 -0.0000 0.9660
vn -0.7071 -0.0000 0.7071
vn -0.9660 -0.0000 0.2585
vn -0.2585 0.9660 -0.0000
vn -0.7071 0.7071 -0.0000
vn -0.9660 0.2585 -0.0000
vn -0.2585 -0.0000 -0.9660
vn -0.7071 -0.0000 -0.7071
vn -0.9660 -0.0000 -0.2585
vn -0.0000 -0.9660 -0.2585
vn -0.0000 -0.7071 -0.7071
vn -0.0000 -0.2585 -0.9660
vn -0.0000 0.9660 -0.2585
vn -0.0000 0.7071 -0.7071
vn -0.0000 0.2585 -0.9660
vn 0.9660 -0.0000 -0.2585
vn 0.7071 -0.0000 -0.7071
vn 0.2585 -0.0000 -0.9660
vn 0.2585 -0.9660 -0.0000
vn 0.7071 -0.7071 -0.0000
vn 0.9660 -0.2585 -0.0000
vn 0.2585 0.9660 -0.0000
vn 0.7071 0.7071 -0.0000
vn 0.9660 0.2585 -0.0000
vn 0.2585 -0.0000 0.9660
vn 0.7071 -0.0000 0.7071
vn 0.9660 -0.0000 0.2585
vn -0.0000 -0.9660 0.2585
vn -0.0000 -0.7071 0.7071
vn -0.0000 -0.2585 0.9660
vn -0.0000 0.9660 0.2585
vn -0.0000 0.7071 0.7071
vn -0.0000 0.2585 0.9660
vn -0.0000 -1.0000 -0.0000
vn -1.0000 -0.0000 -0.0000
vn -0.0000 -0.0000 1.0000
vn -0.0000 1.0000 -0.0000
vn -0.0000 -0.0000 -1.0000
vn 1.0000 -0.0000 -0.0000
vt 0.138158 0.736111
vt 0.138158 0.743046
vt 0.131866 0.742753
vt 0.131588 0.736111
vt 0.138158 0.750000
vt 0.131866 0.750000
vt 0.406250 0.986842
vt 0.406250 1.000000
vt 0.375000 0.993134
vt 0.375000 0.986842
vt 0.406250 0.000000
vt 0.406250 0.006954
vt 0.375000 0.007247
vt 0.375000 0.000000
vt 0.406250 0.013889
vt 0.375000 0.013889
vt 0.125000 0.736111
vt 0.125000 0.742753
vt 0.593750 0.986842
vt 0.609354 0.986842
vt 0.608694 1.000000
vt 0.593750 1.000000
vt 0.625000 0.986842
vt 0.625000 1.000000
vt 0.861842 0.736111
vt 0.875000 0.736111
vt 0.875000 0.742753
vt 0.861842 0.750000
vt 0.625000 0.013889
vt 0.609355 0.013889
vt 0.608694 0.007247
vt 0.625000 0.007247
vt 0.593750 0.013889
vt 0.593750 0.006954
vt 0.593750 0.000000
vt 0.608694 0.000000
vt 0.138158 0.513889
vt 0.131588 0.513889
vt 0.131866 0.507247
vt 0.138158 0.506954
vt 0.125000 0.513889
vt 0.125000 0.507247
vt 0.406250 0.236111
vt 0.406250 0.243046
vt 0.375000 0.242753
vt 0.375000 0.236111
vt 0.406250 0.256588
vt 0.375000 0.256866
vt 0.406250 0.263158
vt 0.375000 0.263158
vt 0.138158 0.500000
vt 0.131866 0.500000
vt 0.861842 0.513889
vt 0.861842 0.500000
vt 0.875000 0.507247
vt 0.875000 0.513889
vt 0.625000 0.263158
vt 0.609354 0.263158
vt 0.608694 0.254235
vt 0.625000 0.245169
vt 0.593750 0.263158
vt 0.593750 0.256588
vt 0.593750 0.243046
vt 0.608694 0.242753
vt 0.593750 0.236111
vt 0.609355 0.236111
vt 0.625000 0.236111
vt 0.361842 0.736111
vt 0.368412 0.736111
vt 0.368134 0.742753
vt 0.361842 0.743046
vt 0.390645 0.736111
vt 0.386363 0.742753
vt 0.406250 0.736111
vt 0.406250 0.743046
vt 0.406250 0.756588
vt 0.371567 0.753433
vt 0.406250 0.763158
vt 0.368421 0.756579
vt 0.638158 0.736111
vt 0.631579 0.756579
vt 0.628433 0.753433
vt 0.631588 0.736111
vt 0.609354 0.763158
vt 0.608694 0.756866
vt 0.593750 0.763158
vt 0.593750 0.756588
vt 0.593750 0.743046
vt 0.608694 0.745431
vt 0.593750 0.736111
vt 0.609355 0.736111
vt 0.361842 0.513889
vt 0.361842 0.506954
vt 0.368134 0.507247
vt 0.368412 0.513889
vt 0.368421 0.493421
vt 0.371567 0.496567
vt 0.406250 0.486842
vt 0.406250 0.493412
vt 0.406250 0.506954
vt 0.386363 0.507247
vt 0.406250 0.513889
vt 0.390646 0.513889
vt 0.638158 0.513889
vt 0.631588 0.513889
vt 0.628433 0.496567
vt 0.631579 0.493421
vt 0.609354 0.513889
vt 0.608694 0.504569
vt 0.593750 0.513889
vt 0.593750 0.506954
vt 0.593750 0.493412
vt 0.608694 0.493134
vt 0.593750 0.486842
vt 0.609354 0.486842
s 0
usemtl GRACEEMO_Actuator_Black
f 1/1/1 4/2/1 6/3/1 5/4/1
f 4/2/2 8/5/2 9/6/2 6/3/2
f 2/7/3 7/8/3 9/9/3 8/10/3
f 7/11/4 11/12/4 12/13/4 9/14/4
f 3/15/5 10/16/5 12/13/5 11/12/5
f 10/17/6 5/4/6 6/3/6 12/18/6
f 6/3/7 9/6/7 12/18/7
f 13/19/8 16/20/8 18/21/8 17/22/8
f 16/20/9 20/23/9 21/24/9 18/21/9
f 14/25/10 19/26/10 21/27/10 20/28/10
f 19/29/11 23/30/11 24/31/11 21/32/11
f 15/33/12 22/34/12 24/31/12 23/30/12
f 22/34/13 17/35/13 18/36/13 24/31/13
f 18/36/14 21/32/14 24/31/14
f 25/37/15 28/38/15 30/39/15 29/40/15
f 28/38/16 32/41/16 33/42/16 30/39/16
f 26/43/17 31/44/17 33/45/17 32/46/17
f 31/44/18 35/47/18 36/48/18 33/45/18
f 27/49/19 34/50/19 36/48/19 35/47/19
f 34/51/20 29/40/20 30/39/20 36/52/20
f 30/39/21 33/42/21 36/52/21
f 37/53/22 40/54/22 42/55/22 41/56/22
f 40/57/23 44/58/23 45/59/23 42/60/23
f 38/61/24 43/62/24 45/59/24 44/58/24
f 43/62/25 47/63/25 48/64/25 45/59/25
f 39/65/26 46/66/26 48/64/26 47/63/26
f 46/66/27 41/67/27 42/60/27 48/64/27
f 42/60/28 45/59/28 48/64/28
f 49/68/29 52/69/29 54/70/29 53/71/29
f 52/69/30 56/72/30 57/73/30 54/70/30
f 50/74/31 55/75/31 57/73/31 56/72/31
f 55/75/32 59/76/32 60/77/32 57/73/32
f 51/78/33 58/79/33 60/77/33 59/76/33
f 58/79/34 53/71/34 54/70/34 60/77/34
f 54/70/35 57/73/35 60/77/35
f 61/80/36 64/81/36 66/82/36 65/83/36
f 64/81/37 68/84/37 69/85/37 66/82/37
f 62/86/38 67/87/38 69/85/38 68/84/38
f 67/87/39 71/88/39 72/89/39 69/85/39
f 63/90/40 70/91/40 72/89/40 71/88/40
f 70/91/41 65/83/41 66/82/41 72/89/41
f 66/82/42 69/85/42 72/89/42
f 73/92/43 76/93/43 78/94/43 77/95/43
f 76/93/44 80/96/44 81/97/44 78/94/44
f 74/98/45 79/99/45 81/97/45 80/96/45
f 79/99/46 83/100/46 84/101/46 81/97/46
f 75/102/47 82/103/47 84/101/47 83/100/47
f 82/103/48 77/95/48 78/94/48 84/101/48
f 78/94/49 81/97/49 84/101/49
f 85/104/50 88/105/50 90/106/50 89/107/50
f 88/105/51 92/108/51 93/109/51 90/106/51
f 86/110/52 91/111/52 93/109/52 92/108/52
f 91/111/53 95/112/53 96/113/53 93/109/53
f 87/114/54 94/115/54 96/113/54 95/112/54
f 94/115/55 89/107/55 90/106/55 96/113/55
f 90/106/56 93/109/56 96/113/56
f 25/37/57 1/1/57 5/4/57 28/38/57
f 28/38/58 5/4/58 10/17/58 32/41/58
f 32/46/59 10/16/59 3/15/59 26/43/59
f 2/7/60 13/19/60 17/22/60 7/8/60
f 7/11/61 17/35/61 22/34/61 11/12/61
f 11/12/62 22/34/62 15/33/62 3/15/62
f 14/25/63 37/53/63 41/56/63 19/26/63
f 19/29/64 41/67/64 46/66/64 23/30/64
f 23/30/65 46/66/65 39/65/65 15/33/65
f 38/61/66 27/49/66 35/47/66 43/62/66
f 43/62/67 35/47/67 31/44/67 47/63/67
f 47/63/68 31/44/68 26/43/68 39/65/68
f 73/92/69 25/37/69 29/40/69 76/93/69
f 76/93/70 29/40/70 34/51/70 80/96/70
f 80/96/71 34/50/71 27/49/71 74/98/71
f 37/53/72 85/104/72 89/107/72 40/54/72
f 40/57/73 89/107/73 94/115/73 44/58/73
f 44/58/74 94/115/74 87/114/74 38/61/74
f 86/110/75 75/102/75 83/100/75 91/111/75
f 91/111/76 83/100/76 79/99/76 95/112/76
f 95/112/77 79/99/77 74/98/77 87/114/77
f 49/68/78 73/92/78 77/95/78 52/69/78
f 52/69/79 77/95/79 82/103/79 56/72/79
f 56/72/80 82/103/80 75/102/80 50/74/80
f 85/104/81 61/80/81 65/83/81 88/105/81
f 88/105/82 65/83/82 70/91/82 92/108/82
f 92/108/83 70/91/83 63/90/83 86/110/83
f 62/86/84 51/78/84 59/76/84 67/87/84
f 67/87/85 59/76/85 55/75/85 71/88/85
f 71/88/86 55/75/86 50/74/86 63/90/86
f 1/1/87 49/68/87 53/71/87 4/2/87
f 4/2/88 53/71/88 58/79/88 8/5/88
f 8/10/89 58/79/89 51/78/89 2/7/89
f 61/80/90 14/25/90 20/28/90 64/81/90
f 64/81/91 20/23/91 16/20/91 68/84/91
f 68/84/92 16/20/92 13/19/92 62/86/92
f 25/37/93 73/92/93 49/68/93 1/1/93
f 3/15/94 15/33/94 39/65/94 26/43/94
f 51/78/95 62/86/95 13/19/95 2/7/95
f 85/104/96 37/53/96 14/25/96 61/80/96
f 27/49/97 38/61/97 87/114/97 74/98/97
f 75/102/98 86/110/98 63/90/98 50/74/98
