# Blender 5.2.1 LTS
# www.blender.org
mtllib Part_Hand_Palm.mtl
o HAND_RIGHT_Palm
v 0.294500 0.560000 0.045500
v 0.294500 0.572000 0.057500
v 0.282500 0.572000 0.045500
v 0.294500 0.561603 0.051492
v 0.288508 0.561603 0.045500
v 0.288761 0.563160 0.051239
v 0.288508 0.572000 0.055897
v 0.294500 0.566008 0.055897
v 0.288761 0.566261 0.054340
v 0.284103 0.566008 0.045500
v 0.284103 0.572000 0.051492
v 0.285660 0.566261 0.051239
v 0.294500 0.638000 0.057500
v 0.294500 0.650000 0.045500
v 0.282500 0.638000 0.045500
v 0.294500 0.643992 0.055897
v 0.288508 0.638000 0.055897
v 0.288761 0.643739 0.054340
v 0.288508 0.648397 0.045500
v 0.294500 0.648397 0.051492
v 0.288761 0.646840 0.051239
v 0.284103 0.638000 0.051492
v 0.284103 0.643992 0.045500
v 0.285660 0.643739 0.051239
v 0.294500 0.560000 0.014500
v 0.282500 0.572000 0.014500
v 0.294500 0.572000 0.002500
v 0.288508 0.561603 0.014500
v 0.294500 0.561603 0.008508
v 0.288761 0.563160 0.008761
v 0.284103 0.572000 0.008508
v 0.284103 0.566008 0.014500
v 0.285660 0.566261 0.008761
v 0.294500 0.566008 0.004103
v 0.288508 0.572000 0.004103
v 0.288761 0.566261 0.005660
v 0.294500 0.650000 0.014500
v 0.294500 0.638000 0.002500
v 0.282500 0.638000 0.014500
v 0.294500 0.648397 0.008508
v 0.288508 0.648397 0.014500
v 0.288761 0.646840 0.008761
v 0.288508 0.638000 0.004103
v 0.294500 0.643992 0.004103
v 0.288761 0.643739 0.005660
v 0.284103 0.643992 0.014500
v 0.284103 0.638000 0.008508
v 0.285660 0.643739 0.008761
v 0.345500 0.560000 0.045500
v 0.357500 0.572000 0.045500
v 0.345500 0.572000 0.057500
v 0.351492 0.561603 0.045500
v 0.345500 0.561603 0.051492
v 0.351239 0.563160 0.051239
v 0.355897 0.572000 0.051492
v 0.355897 0.566008 0.045500
v 0.354340 0.566261 0.051239
v 0.345500 0.566008 0.055897
v 0.351492 0.572000 0.055897
v 0.351239 0.566261 0.054340
v 0.345500 0.650000 0.045500
v 0.345500 0.638000 0.057500
v 0.357500 0.638000 0.045500
v 0.345500 0.648397 0.051492
v 0.351492 0.648397 0.045500
v 0.351239 0.646840 0.051239
v 0.351492 0.638000 0.055897
v 0.345500 0.643992 0.055897
v 0.351239 0.643739 0.054340
v 0.355897 0.643992 0.045500
v 0.355897 0.638000 0.051492
v 0.354340 0.643739 0.051239
v 0.345500 0.560000 0.014500
v 0.345500 0.572000 0.002500
v 0.357500 0.572000 0.014500
v 0.345500 0.561603 0.008508
v 0.351492 0.561603 0.014500
v 0.351239 0.563160 0.008761
v 0.351492 0.572000 0.004103
v 0.345500 0.566008 0.004103
v 0.351239 0.566261 0.005660
v 0.355897 0.566008 0.014500
v 0.355897 0.572000 0.008508
v 0.354340 0.566261 0.008761
v 0.345500 0.650000 0.014500
v 0.357500 0.638000 0.014500
v 0.345500 0.638000 0.002500
v 0.351492 0.648397 0.014500
v 0.345500 0.648397 0.008508
v 0.351239 0.646840 0.008761
v 0.355897 0.638000 0.008508
v 0.355897 0.643992 0.014500
v 0.354340 0.643739 0.008761
v 0.345500 0.643992 0.004103
v 0.351492 0.638000 0.004103
v 0.351239 0.643739 0.005660
vn -0.2566 -0.9318 0.2566
vn -0.2178 -0.6901 0.6901
vn -0.2566 -0.2566 0.9318
vn -0.6901 -0.2178 0.6901
vn -0.9318 -0.2566 0.2566
vn -0.6901 -0.6901 0.2178
vn -0.5774 -0.5773 0.5773
vn -0.2566 0.2566 0.9318
vn -0.2178 0.6901 0.6901
vn -0.2566 0.9318 0.2566
vn -0.6901 0.6901 0.2178
vn -0.9318 0.2566 0.2566
vn -0.6901 0.2178 0.6901
vn -0.5774 0.5773 0.5773
vn -0.2566 -0.9318 -0.2566
vn -0.6901 -0.6901 -0.2178
vn -0.9318 -0.2566 -0.2566
vn -0.6901 -0.2178 -0.6901
vn -0.2566 -0.2566 -0.9318
vn -0.2178 -0.6901 -0.6901
vn -0.5774 -0.5774 -0.5774
vn -0.2566 0.9318 -0.2566
vn -0.2178 0.6901 -0.6901
vn -0.2566 0.2566 -0.9318
vn -0.6901 0.2178 -0.6901
vn -0.9318 0.2566 -0.2566
vn -0.6901 0.6901 -0.2178
vn -0.5774 0.5773 -0.5773
vn 0.2566 -0.9318 0.2566
vn 0.6901 -0.6901 0.2178
vn 0.9318 -0.2566 0.2566
vn 0.6901 -0.2178 0.6901
vn 0.2566 -0.2566 0.9318
vn 0.2178 -0.6901 0.6901
vn 0.5774 -0.5774 0.5774
vn 0.2566 0.9318 0.2566
vn 0.2178 0.6901 0.6901
vn 0.2566 0.2566 0.9318
vn 0.6901 0.2178 0.6901
vn 0.9318 0.2566 0.2566
vn 0.6901 0.6901 0.2178
vn 0.5774 0.5773 0.5773
vn 0.2566 -0.9318 -0.2566
vn 0.2178 -0.6901 -0.6901
vn 0.2566 -0.2566 -0.9318
vn 0.6901 -0.2178 -0.6901
vn 0.9318 -0.2566 -0.2566
vn 0.6901 -0.6901 -0.2178
vn 0.5774 -0.5773 -0.5773
vn 0.2566 0.9318 -0.2566
vn 0.6901 0.6901 -0.2178
vn 0.9318 0.2566 -0.2566
vn 0.6901 0.2178 -0.6901
vn 0.2566 0.2566 -0.9318
vn 0.2178 0.6901 -0.6901
vn 0.5774 0.5774 -0.5774
vn -0.2585 -0.9660 -0.0000
vn -0.7071 -0.7071 -0.0000
vn -0.9660 -0.2585 -0.0000
vn -0.2585 -0.0000 0.9660
vn -0.7071 -0.0000 0.7071
vn -0.9660 -0.0000 0.2585
vn -0.2585 0.9660 -0.0000
vn -0.7071 0.7071 -0.0000
vn -0.9660 0.2585 -0.0000
vn -0.2585 -0.0000 -0.9660
vn -0.7071 -0.0000 -0.7071
vn -0.9660 -0.0000 -0.2585
vn -0.0000 -0.9660 -0.2585
vn -0.0000 -0.7071 -0.7071
vn -0.0000 -0.2585 -0.9660
vn -0.0000 0.9660 -0.2585
vn -0.0000 0.7071 -0.7071
vn -0.0000 0.2585 -0.9660
vn 0.9660 -0.0000 -0.2585
vn 0.7071 -0.0000 -0.7071
vn 0.2585 -0.0000 -0.9660
vn 0.2585 -0.9660 -0.0000
vn 0.7071 -0.7071 -0.0000
vn 0.9660 -0.2585 -0.0000
vn 0.2585 0.9660 -0.0000
vn 0.7071 0.7071 -0.0000
vn 0.9660 0.2585 -0.0000
vn 0.2585 -0.0000 0.9660
vn 0.7071 -0.0000 0.7071
vn 0.9660 -0.0000 0.2585
vn -0.0000 -0.9660 0.2585
vn -0.0000 -0.7071 0.7071
vn -0.0000 -0.2585 0.9660
vn -0.0000 0.9660 0.2585
vn -0.0000 0.7071 0.7071
vn -0.0000 0.2585 0.9660
vn -0.0000 -1.0000 -0.0000
vn -1.0000 -0.0000 -0.0000
vn -0.0000 -0.0000 1.0000
vn -0.0000 1.0000 -0.0000
vn -0.0000 -0.0000 -1.0000
vn 1.0000 -0.0000 -0.0000
vt 0.165000 0.695455
vt 0.165000 0.722691
vt 0.145872 0.721539
vt 0.145026 0.695455
vt 0.165000 0.750000
vt 0.145872 0.750000
vt 0.408333 0.960000
vt 0.408333 1.000000
vt 0.375000 0.979128
vt 0.375000 0.960000
vt 0.408333 0.000000
vt 0.408333 0.027309
vt 0.375000 0.028461
vt 0.375000 0.000000
vt 0.408333 0.054545
vt 0.375000 0.054545
vt 0.125000 0.695455
vt 0.125000 0.721539
vt 0.591667 0.960000
vt 0.608311 0.960000
vt 0.607607 0.979128
vt 0.591667 1.000000
vt 0.625000 0.960000
vt 0.625000 0.979128
vt 0.835000 0.695455
vt 0.875000 0.695455
vt 0.854128 0.750000
vt 0.835000 0.750000
vt 0.625000 0.054545
vt 0.608312 0.054545
vt 0.607607 0.028461
vt 0.625000 0.000000
vt 0.591667 0.054545
vt 0.591667 0.027309
vt 0.591667 0.000000
vt 0.607607 0.014365
vt 0.607607 0.989465
vt 0.165000 0.554545
vt 0.145026 0.554545
vt 0.145872 0.528461
vt 0.165000 0.527309
vt 0.125000 0.554545
vt 0.125000 0.528461
vt 0.408333 0.195455
vt 0.408333 0.222691
vt 0.375000 0.221539
vt 0.375000 0.195455
vt 0.408333 0.270026
vt 0.375000 0.270871
vt 0.408333 0.290000
vt 0.375000 0.290000
vt 0.165000 0.500000
vt 0.145872 0.500000
vt 0.835000 0.554545
vt 0.835000 0.500000
vt 0.854128 0.500000
vt 0.875000 0.554545
vt 0.625000 0.290000
vt 0.608311 0.290000
vt 0.607607 0.270872
vt 0.625000 0.263914
vt 0.591667 0.290000
vt 0.591667 0.270026
vt 0.591667 0.222691
vt 0.607607 0.231288
vt 0.591667 0.195455
vt 0.608312 0.195455
vt 0.625000 0.195455
vt 0.335000 0.695455
vt 0.354974 0.695455
vt 0.354128 0.721539
vt 0.335000 0.722692
vt 0.391689 0.695455
vt 0.385411 0.721539
vt 0.408333 0.695455
vt 0.408333 0.722691
vt 0.408333 0.770026
vt 0.364564 0.760436
vt 0.408333 0.790000
vt 0.355000 0.770000
vt 0.665000 0.695455
vt 0.645000 0.770000
vt 0.635436 0.760436
vt 0.645026 0.695455
vt 0.608311 0.790000
vt 0.607607 0.770872
vt 0.591667 0.790000
vt 0.591667 0.770026
vt 0.591667 0.722692
vt 0.607607 0.731288
vt 0.591667 0.695455
vt 0.608312 0.695455
vt 0.335000 0.554545
vt 0.335000 0.527309
vt 0.354128 0.528461
vt 0.354974 0.554546
vt 0.355000 0.480000
vt 0.364564 0.489564
vt 0.408333 0.460000
vt 0.408333 0.479974
vt 0.408333 0.527308
vt 0.385411 0.528461
vt 0.408333 0.554545
vt 0.391689 0.554545
vt 0.665000 0.554545
vt 0.645026 0.554545
vt 0.631046 0.516128
vt 0.645000 0.480000
vt 0.608312 0.554546
vt 0.607607 0.528461
vt 0.591667 0.554546
vt 0.591667 0.527308
vt 0.591667 0.479974
vt 0.607607 0.487938
vt 0.591667 0.460000
vt 0.608311 0.460000
s 0
usemtl GRACEEMO_Shell_White
f 1/1/1 4/2/1 6/3/1 5/4/1
f 4/2/2 8/5/2 9/6/2 6/3/2
f 2/7/3 7/8/3 9/9/3 8/10/3
f 7/11/4 11/12/4 12/13/4 9/14/4
f 3/15/5 10/16/5 12/13/5 11/12/5
f 10/17/6 5/4/6 6/3/6 12/18/6
f 6/3/7 9/6/7 12/18/7
f 13/19/8 16/20/8 18/21/8 17/22/8
f 16/20/9 20/23/9 21/24/9 18/21/9
f 14/25/10 19/26/10 21/27/10 20/28/10
f 19/29/11 23/30/11 24/31/11 21/32/11
f 15/33/12 22/34/12 24/31/12 23/30/12
f 22/34/13 17/35/13 18/36/13 24/31/13
f 18/21/14 21/24/14 24/37/14
f 25/38/15 28/39/15 30/40/15 29/41/15
f 28/39/16 32/42/16 33/43/16 30/40/16
f 26/44/17 31/45/17 33/46/17 32/47/17
f 31/45/18 35/48/18 36/49/18 33/46/18
f 27/50/19 34/51/19 36/49/19 35/48/19
f 34/52/20 29/41/20 30/40/20 36/53/20
f 30/40/21 33/43/21 36/53/21
f 37/54/22 40/55/22 42/56/22 41/57/22
f 40/58/23 44/59/23 45/60/23 42/61/23
f 38/62/24 43/63/24 45/60/24 44/59/24
f 43/63/25 47/64/25 48/65/25 45/60/25
f 39/66/26 46/67/26 48/65/26 47/64/26
f 46/67/27 41/68/27 42/61/27 48/65/27
f 42/61/28 45/60/28 48/65/28
f 49/69/29 52/70/29 54/71/29 53/72/29
f 52/70/30 56/73/30 57/74/30 54/71/30
f 50/75/31 55/76/31 57/74/31 56/73/31
f 55/76/32 59/77/32 60/78/32 57/74/32
f 51/79/33 58/80/33 60/78/33 59/77/33
f 58/80/34 53/72/34 54/71/34 60/78/34
f 54/71/35 57/74/35 60/78/35
f 61/81/36 64/82/36 66/83/36 65/84/36
f 64/82/37 68/85/37 69/86/37 66/83/37
f 62/87/38 67/88/38 69/86/38 68/85/38
f 67/88/39 71/89/39 72/90/39 69/86/39
f 63/91/40 70/92/40 72/90/40 71/89/40
f 70/92/41 65/84/41 66/83/41 72/90/41
f 66/83/42 69/86/42 72/90/42
f 73/93/43 76/94/43 78/95/43 77/96/43
f 76/94/44 80/97/44 81/98/44 78/95/44
f 74/99/45 79/100/45 81/98/45 80/97/45
f 79/100/46 83/101/46 84/102/46 81/98/46
f 75/103/47 82/104/47 84/102/47 83/101/47
f 82/104/48 77/96/48 78/95/48 84/102/48
f 78/95/49 81/98/49 84/102/49
f 85/105/50 88/106/50 90/107/50 89/108/50
f 88/106/51 92/109/51 93/110/51 90/107/51
f 86/111/52 91/112/52 93/110/52 92/109/52
f 91/112/53 95/113/53 96/114/53 93/110/53
f 87/115/54 94/116/54 96/114/54 95/113/54
f 94/116/55 89/108/55 90/107/55 96/114/55
f 90/107/56 93/110/56 96/114/56
f 25/38/57 1/1/57 5/4/57 28/39/57
f 28/39/58 5/4/58 10/17/58 32/42/58
f 32/47/59 10/16/59 3/15/59 26/44/59
f 2/7/60 13/19/60 17/22/60 7/8/60
f 7/11/61 17/35/61 22/34/61 11/12/61
f 11/12/62 22/34/62 15/33/62 3/15/62
f 14/25/63 37/54/63 41/57/63 19/26/63
f 19/29/64 41/68/64 46/67/64 23/30/64
f 23/30/65 46/67/65 39/66/65 15/33/65
f 38/62/66 27/50/66 35/48/66 43/63/66
f 43/63/67 35/48/67 31/45/67 47/64/67
f 47/64/68 31/45/68 26/44/68 39/66/68
f 73/93/69 25/38/69 29/41/69 76/94/69
f 76/94/70 29/41/70 34/52/70 80/97/70
f 80/97/71 34/51/71 27/50/71 74/99/71
f 37/54/72 85/105/72 89/108/72 40/55/72
f 40/58/73 89/108/73 94/116/73 44/59/73
f 44/59/74 94/116/74 87/115/74 38/62/74
f 86/111/75 75/103/75 83/101/75 91/112/75
f 91/112/76 83/101/76 79/100/76 95/113/76
f 95/113/77 79/100/77 74/99/77 87/115/77
f 49/69/78 73/93/78 77/96/78 52/70/78
f 52/70/79 77/96/79 82/104/79 56/73/79
f 56/73/80 82/104/80 75/103/80 50/75/80
f 85/105/81 61/81/81 65/84/81 88/106/81
f 88/106/82 65/84/82 70/92/82 92/109/82
f 92/109/83 70/92/83 63/91/83 86/111/83
f 62/87/84 51/79/84 59/77/84 67/88/84
f 67/88/85 59/77/85 55/76/85 71/89/85
f 71/89/86 55/76/86 50/75/86 63/91/86
f 1/1/87 49/69/87 53/72/87 4/2/87
f 4/2/88 53/72/88 58/80/88 8/5/88
f 8/10/89 58/80/89 51/79/89 2/7/89
f 61/81/90 14/25/90 20/28/90 64/82/90
f 64/82/91 20/23/91 16/20/91 68/85/91
f 68/85/92 16/20/92 13/19/92 62/87/92
f 25/38/93 73/93/93 49/69/93 1/1/93
f 3/15/94 15/33/94 39/66/94 26/44/94
f 51/79/95 62/87/95 13/19/95 2/7/95
f 85/105/96 37/54/96 14/25/96 61/81/96
f 27/50/97 38/62/97 87/115/97 74/99/97
f 75/103/98 86/111/98 63/91/98 50/75/98
