# Blender 5.2.1 LTS
# www.blender.org
mtllib Part_AI_Computer_Jetson.mtl
o COMP_AI_COMPUTER_ENVELOPE
v -0.070000 -0.027500 0.052500
v 0.070000 -0.027500 0.052500
v 0.070000 -0.027500 -0.052500
v -0.070000 -0.027500 -0.052500
v -0.070000 0.027500 0.052500
v 0.070000 0.027500 0.052500
v 0.070000 0.027500 -0.052500
v -0.070000 0.027500 -0.052500
vn -0.0000 1.0000 -0.0000
vn -0.0000 -0.0000 1.0000
vn -0.0000 -0.0000 -1.0000
vn 1.0000 -0.0000 -0.0000
s 0
usemtl MAT_ENG_BlackAnodizedHeatsink
f 1//1 2//1 3//1 4//1
f 5//1 6//1 7//1 8//1
f 1//2 2//2 6//2 5//2
f 3//3 4//3 8//3 7//3
f 1//4 4//4 8//4 5//4
f 2//4 3//4 7//4 6//4
